<?xml version="1.0" encoding="utf-8"?>
<!-- Generator: Adobe Illustrator 25.2.1, SVG Export Plug-In . SVG Version: 6.00 Build 0)  -->
<svg version="1.1" id="Layer_1" xmlns="http://www.w3.org/2000/svg" xmlns:xlink="http://www.w3.org/1999/xlink" x="0px" y="0px"
	 viewBox="0 0 512 512" style="enable-background:new 0 0 512 512;" xml:space="preserve">
<style type="text/css">
	.st0{fill:#FFFFFF;stroke:#000000;stroke-miterlimit:10;}
</style>
<path class="st0" d="M306,336c0,5.5-4.5,10-10,10s-10-4.5-10-10c0-5.5,4.5-10,10-10S306,330.5,306,336z"/>
<path class="st0" d="M296,366.1c-5.5-0.7-10.5,3.2-11.1,8.7c-2.7,22.7-10.5,48.8-18.4,62.1c-2.8,4.7-1.3,10.9,3.5,13.7
	c4.7,2.8,10.9,1.3,13.7-3.5c9.5-15.9,17.9-44,21.1-69.9C305.4,371.7,301.5,366.7,296,366.1z"/>
<path class="st0" d="M482.4,454.3l-77.8-64.2l-39.1-117.3c-1.4-4.1-5.2-6.8-9.5-6.8h-34.9c-2.9-4.4-6.1-8.6-9.4-12.4
	c1.7-2.4,3.3-4.8,4.7-7.2l56.9-18.9l35.6,35.6c1.9,1.9,4.4,2.9,7.1,2.9h60c5.5,0,10-4.5,10-10c0-5.5-4.5-10-10-10h-55.9l-37.1-37.1
	c-2.7-2.7-6.6-3.6-10.2-2.4l-47.3,15.8c0.2-1.1,0.3-2.2,0.4-3.3l55.8-93H416c5.5,0,10-4.5,10-10c0-5.5-4.5-10-10-10h-40
	c-3.5,0-6.8,1.8-8.6,4.9l-49.2,82c-2.7-3.7-6-7.2-9.9-10.3c11.4-12.7,17.7-29.1,17.7-46.6c0-19.8-8.2-42.9-21.1-60.6l16.6-11.1
	c4-2.7,5.6-7.9,3.6-12.3l-20-46c-2.2-5.1-8.1-7.4-13.2-5.2s-7.4,8.1-5.2,13.2l16.7,38.3l-12.2,8.1C280.3,51,268.3,46,256,46
	s-24.3,5-35.3,14.5l-12.2-8.1L225.2,14c2.2-5.1-0.1-11-5.2-13.2c-5.1-2.2-11,0.1-13.2,5.2l-20,46c-1.9,4.4-0.4,9.6,3.6,12.3
	l16.6,11.1C194.2,93.1,186,116.2,186,136c0,17.5,6.3,33.9,17.7,46.6c-3.9,3.1-7.2,6.6-9.9,10.3l-49.2-82c-1.8-3-5.1-4.9-8.6-4.9H96
	c-5.5,0-10,4.5-10,10c0,5.5,4.5,10,10,10h34.3l55.8,93c0.1,1.1,0.2,2.2,0.4,3.3l-47.3-15.8c-3.6-1.2-7.6-0.3-10.2,2.4L91.9,246H36
	c-5.5,0-10,4.5-10,10c0,5.5,4.5,10,10,10h60c2.7,0,5.2-1.1,7.1-2.9l35.6-35.6l56.9,18.9c1.4,2.5,3,4.9,4.7,7.2
	c-3.3,3.8-6.5,7.9-9.4,12.4H156c-4.3,0-8.1,2.8-9.5,6.8l-39.1,117.3l-77.8,64.2c-4.3,3.5-4.9,9.8-1.4,14.1c3.5,4.3,9.8,4.9,14.1,1.4
	l80-66c1.4-1.2,2.5-2.8,3.1-4.6L163.2,286H180c-9.1,20.7-14,45-14,70c0,34.2,9.2,72.5,24.5,102.4c17.7,34.6,41,53.6,65.5,53.6
	c24.5,0,47.7-19,65.5-53.6C336.8,428.5,346,390.2,346,356c0-25-4.9-49.3-14-70h16.8l37.7,113.2c0.6,1.8,1.7,3.4,3.1,4.6l80,66
	c4.3,3.5,10.6,2.9,14.1-1.4C487.2,464.1,486.6,457.8,482.4,454.3z M206,216c0-7.3,5-14.6,13.6-20.2c11,6.7,23.4,10.2,36.4,10.2
	c13,0,25.5-3.5,36.4-10.2c8.6,5.6,13.6,12.9,13.6,20.2c0,17.4-23.2,50-50,50C229.5,266,206,233.6,206,216z M256,66
	c26.1,0,50,40.9,50,70c0,15.9-7.3,30.5-20,40c-8.7,6.5-19.1,10-30,10s-21.3-3.5-30-10c-12.7-9.6-20-24.1-20-40
	C206,107.2,229.8,66,256,66z M303.7,449.3C289.7,476.4,272.4,492,256,492s-33.7-15.6-47.7-42.7C194.3,422,186,387.2,186,356
	c0-27.8,6.7-54.4,19-74.9c2.7-4.6,5.7-8.7,8.8-12.5c12.8,11.3,27.4,17.4,42.2,17.4c14.8,0,29.5-6.1,42.2-17.4
	c3.2,3.8,6.1,8,8.8,12.5c12.2,20.5,19,47.1,19,74.9C326,387.2,317.7,422,303.7,449.3z"/>
</svg>
