<?xml version="1.0" encoding="utf-8"?>
<!-- Generator: Adobe Illustrator 25.2.1, SVG Export Plug-In . SVG Version: 6.00 Build 0)  -->
<svg version="1.1" id="Layer_1" xmlns="http://www.w3.org/2000/svg" xmlns:xlink="http://www.w3.org/1999/xlink" x="0px" y="0px"
	 viewBox="0 0 511 511" style="enable-background:new 0 0 511 511;" xml:space="preserve">
<style type="text/css">
	.st0{fill:#FFFFFF;stroke:#000000;stroke-miterlimit:10;}
</style>
<path class="st0" d="M505.8,211.9l-12.6-4.1c-2.3-0.7-4.8-0.4-6.7,1.1l-37.7,27.4L403,186.7c-2-2.2-5.2-3-8-2l-40.4,14.2
	c-0.4-0.5-0.8-1-1.1-1.5c-12.6-16.2-25.2-25.9-32.5-30.8c1.6-3.2,3-6,4.4-10.5l25.3-3.5c2.6-0.4,4.9-2.1,5.9-4.5l18.9-45.3
	l40.3-21.9c3.6-2,5-6.5,3-10.2c-2-3.6-6.5-5-10.2-3L366,90.8c-1.5,0.8-2.7,2.1-3.3,3.7l-18.3,43.8l-16.5,2.3
	c0.1-3.2-0.2-6.4-0.7-9.5c-0.7-4.1-4.5-6.9-8.6-6.2c-4.1,0.7-6.9,4.5-6.2,8.6c2.1,13.5-2.9,22.5-5.8,28.5H205.5l-2.3-4.7
	c-5.2-10.7-5.4-23.1-0.5-33.9c3.9-8.9,10.8-15.9,19.3-20c13.8,20.8,54.5,20.6,68.1,0c2.6,1.3,5.1,2.8,7.4,4.7
	c3.2,2.6,7.9,2,10.5-1.2c2.6-3.2,2-7.9-1.2-10.5c-4-3.1-8.3-5.7-12.9-7.6c-0.4-4.7-2.4-9.1-5.4-12.9l33.4-29.2h35.9
	c2.2,0,4.3-1,5.7-2.7l19-22.6c2.7-3.2,2.2-7.9-0.9-10.5c-3.2-2.7-7.9-2.2-10.5,0.9l-16.7,19.9h-35.2c-1.8,0-3.6,0.7-4.9,1.8
	l-38,33.2c-3.8-1.7-8.1-3-12.7-3.7V46c0-4.1-3.4-7.5-7.5-7.5c-4.1,0-7.5,3.3-7.5,7.5v17c-4.6,0.7-8.9,1.9-12.7,3.7l-38-33.2
	c-1.4-1.2-3.1-1.9-4.9-1.9h-35.2l-16.7-19.9c-2.7-3.2-7.4-3.6-10.5-0.9c-3.2,2.7-3.6,7.4-0.9,10.5l19,22.6c1.4,1.7,3.5,2.7,5.7,2.7
	h35.9l33.4,29.2c-3.1,3.8-5,8.1-5.4,12.9c-12.9,5.4-23.4,15.6-29.2,28.6c-3.3,7.5-4.9,15.5-4.8,23.5l-17.6-2.5l-18.3-43.8
	c-0.7-1.6-1.8-2.9-3.3-3.7l-42.6-23.2c-3.6-2-8.2-0.6-10.2,3c-2,3.6-0.6,8.2,3,10.2l40.3,21.9l18.9,45.3c1,2.4,3.3,4.2,5.9,4.5
	l26.4,3.7c1.4,4.5,2.7,7,4.3,10.4c-12.7,8.5-24.6,20.3-33.9,32.6L116,184.7c-2.8-1-5.9-0.2-8,2l-45.9,49.5l-37.7-27.4
	c-1.9-1.4-4.4-1.8-6.7-1.1l-12.6,4.1c-3.9,1.3-6.1,5.5-4.8,9.4c1.3,3.9,5.5,6.1,9.4,4.8l8.9-2.9l39.9,29c3.1,2.2,7.3,1.8,9.9-1
	l47.1-50.8l32.8,11.6c-12.6,20.4-20.4,43.2-24.4,66l-36.7,7.5c-2.8,0.6-5.1,2.7-5.8,5.6L56.2,395.4l-15.6,18.5H20
	c-4.1,0-7.5,3.3-7.5,7.5c0,4.1,3.3,7.5,7.5,7.5h24.1c2.2,0,4.3-1,5.7-2.7l19-22.5c0.7-0.9,1.3-1.9,1.5-3L95,299.2l26.9-5.5
	c-4.6,45.1,2.9,87.6,40.9,138.1c0.2,0.3,0.4,0.6,0.6,0.9c13.7,18,30.2,35.3,49.3,51.5c11.2,9.5,23,18.7,43.3,18.7
	c12.8,0,25.6-4.2,36-12.7c20.6-16.7,40.2-36,56.6-57.5c0.2-0.3,0.4-0.6,0.6-0.9c35-46.5,45.9-88.3,40.9-137.9l25.8,5.3l24.7,101.5
	c0.3,1.1,0.8,2.2,1.5,3l19,22.5c1.4,1.7,3.5,2.7,5.7,2.7H491c4.1,0,7.5-3.4,7.5-7.5c0-4.1-3.4-7.5-7.5-7.5h-20.6l-15.6-18.5
	l-25.4-104.4c-0.7-2.8-2.9-5-5.8-5.6l-35.6-7.3c-4.1-23.6-11.9-46-24.6-66.5l32-11.3l47.1,50.8c2.6,2.8,6.8,3.2,9.9,1l39.9-29
	l8.9,2.9c3.9,1.3,8.2-0.9,9.4-4.8C511.9,217.4,509.8,213.2,505.8,211.9z M256,77.4c13.6,0,23,7,23,13.3c0,7-10.3,12.1-19.1,13.1
	c-14.6,1.5-26.9-5.8-26.9-13.1C233,84.4,242.5,77.4,256,77.4z M337.9,421.9c-13.7,4.8-28.3,5.7-42.5,2.6l-19.5-4.3
	c-13-2.9-26.8-2.9-39.8,0l-19.5,4.3c-14.2,3.1-28.8,2.2-42.5-2.6c-11.9-16-22.6-34.2-29.6-54l15.7,7.5c12.4,5.9,26.1,8.9,39.8,8.9
	c6.6,0,13.3-0.7,19.8-2.1l19.5-4.3c10.9-2.4,22.5-2.4,33.4,0c21.1,4.6,46.7,12.8,79.1-2.5l15.7-7.5
	C360.5,387.8,349.9,405.9,337.9,421.9z M374.7,291l-29.3,13.9c-28.5,13.5-50.2,5.3-70.6,1.2c-4.8-1-8.4,2-9.2,5.8
	c-0.8,3.8,1.4,7.9,6.2,8.9c19.5,3.9,46.1,13.7,80-2.3l24.3-11.5c0.7,14.2,0.2,27-3,41.9l-27.6,13.1c-27.2,12.9-48.1,6.1-69.5,1.4
	c-13-2.9-26.8-2.9-39.8,0l-19.5,4.3c-16.7,3.7-34.5,1.7-50-5.7L139,348.8c-3.2-14.8-3.8-27.3-3-41.9c24.9,11.8,48.1,26.1,83.9,18.3
	l19.5-4.3l0.2-0.1c4-0.9,6.6-4.8,5.7-8.9s-4.9-6.6-8.9-5.8c-21.7,4.8-42.6,11.6-69.8-1.3L137.3,291c1.7-13.7,4.5-25.9,8.1-36.6
	c16.2,7.7,39.8,21.4,74.5,13.8l19.5-4.3c10.9-2.4,22.5-2.4,33.4,0c21.1,4.6,46.7,12.8,79.1-2.5l14.9-7
	C370.2,265.1,373.1,277.3,374.7,291z M345.4,247.8c-27.2,12.9-48.1,6.1-69.5,1.4c-13-2.9-26.8-2.9-39.8,0
	c-21.3,4.7-42.2,11.5-69.5-1.4l-16-7.6c5.2-12.2,11.6-23,18.6-32.2c20.8,7.3,37.3,5.9,56.4,1.7c16.6,19.2,42.5,20.8,60.5,0
	c17.4,3.8,34.3,6,56.4-1.7c7.6,10,13.8,20.9,18.6,32.2L345.4,247.8z M332.1,195.7c-11.3,3-23.1,3.5-34.7,1.2l15.3-17.7
	C317.3,182.2,324.3,187.6,332.1,195.7z M294.9,177c-8.4,9.7-12.8,14.8-21.5,24.8c-6.2,7.1-16,9.7-24.7,6.8
	c-7.7-2.6-8.6-5.1-31.6-31.6H294.9z M199.3,179.2l15.3,17.7c-11.6,2.2-23.4,1.8-34.7-1.2C187.7,187.6,194.8,182.2,199.3,179.2z
	 M258.5,487.9c-18.3,1-27.9-8-38.8-17.4c-9.5-8.2-19.9-18.2-30.2-29.7c10.1,1.1,20.3,0.6,30.3-1.6l19.5-4.3
	c10.9-2.4,22.5-2.4,33.4,0l19.5,4.3c10,2.2,20.3,2.7,30.3,1.6c-12.2,13.7-25.9,26.5-39.9,37.8C275.6,484.3,267.1,487.4,258.5,487.9z
	"/>
</svg>
