<?xml version="1.0" encoding="utf-8"?>
<!-- Generator: Adobe Illustrator 25.2.1, SVG Export Plug-In . SVG Version: 6.00 Build 0)  -->
<svg version="1.1" id="Layer_1" xmlns="http://www.w3.org/2000/svg" xmlns:xlink="http://www.w3.org/1999/xlink" x="0px" y="0px"
	 viewBox="0 0 368 368" style="enable-background:new 0 0 368 368;" xml:space="preserve">
<style type="text/css">
	.st0{fill:#FFFFFF;stroke:#000000;stroke-miterlimit:10;}
</style>
<path class="st0" d="M144,286.4c-2.4-1.1-4.5-2.7-7-4.7c-5.4-4.3-12.2-9.7-25-9.7s-19.6,5.4-25,9.8c-4.7,3.8-7.8,6.2-15,6.2
	c-4.4,0-8,3.6-8,8s3.6,8,8,8c12.8,0,19.6-5.4,25-9.8c4.7-3.8,7.8-6.2,15-6.2s10.3,2.5,15,6.2c4.2,3.3,9.1,7.3,17,8.9V328
	c0,22.1,17.9,40,40,40s40-17.9,40-40v-24.8c7.9-1.7,12.8-5.6,17-8.9c4.7-3.8,7.8-6.2,15-6.2s10.3,2.5,15,6.2
	c5.4,4.3,12.2,9.8,25,9.8c4.4,0,8-3.6,8-8s-3.6-8-8-8c-7.2,0-10.3-2.5-15-6.2c-5.4-4.3-12.2-9.8-25-9.8s-19.6,5.4-25,9.8
	c-2.5,2-4.6,3.6-7,4.7v-47.3c7.9-1.7,12.8-5.6,17-8.9c4.7-3.8,7.8-6.3,15-6.3s10.3,2.5,15,6.2c5.4,4.3,12.2,9.8,25,9.8
	c4.4,0,8-3.6,8-8s-3.6-8-8-8c-7.2,0-10.3-2.5-15-6.2c-5.4-4.3-12.2-9.8-25-9.8s-19.6,5.4-25,9.8c-2.5,2-4.6,3.6-7,4.7v-47.3
	c7.9-1.7,12.8-5.6,17-8.9c4.7-3.8,7.8-6.2,15-6.2s10.3,2.5,15,6.2c5.4,4.3,12.2,9.8,25,9.8c4.4,0,8-3.6,8-8s-3.6-8-8-8
	c-7.2,0-10.3-2.5-15-6.2c-5.4-4.3-12.2-9.8-25-9.8s-19.6,5.4-25,9.8c-2.5,2-4.6,3.6-7,4.7v-47.3c7.9-1.7,12.8-5.6,17-8.9
	c4.7-3.8,7.8-6.2,15-6.2s10.3,2.5,15,6.2c5.4,4.3,12.2,9.8,25,9.8c4.4,0,8-3.6,8-8s-3.6-8-8-8c-7.2,0-10.3-2.5-15-6.2
	c-5.4-4.3-12.2-9.8-25-9.8s-19.6,5.4-25,9.8c-2.5,2-4.6,3.6-7,4.7V72c0-18.9-13.2-34.7-30.9-38.9c3-9.9,12-17.1,22.9-17.1h16
	c4.4,0,8-3.6,8-8s-3.6-8-8-8h-16c-13.1,0-24.7,6.3-32,16c-7.3-9.7-18.9-16-32-16h-16c-4.4,0-8,3.6-8,8s3.6,8,8,8h16
	c10.8,0,19.9,7.3,22.9,17.1C157.2,37.3,144,53.1,144,72v22.4c-2.4-1.1-4.5-2.7-7-4.7c-5.4-4.4-12.2-9.8-25-9.8s-19.6,5.4-25,9.8
	c-4.7,3.8-7.8,6.2-15,6.2c-4.4,0-8,3.6-8,8s3.6,8,8,8c12.8,0,19.6-5.4,25-9.8c4.7-3.8,7.8-6.2,15-6.2s10.3,2.5,15,6.2
	c4.2,3.3,9.1,7.3,17,8.9v47.3c-2.4-1.1-4.5-2.7-7-4.7c-5.4-4.4-12.2-9.8-25-9.8s-19.6,5.4-25,9.8c-4.7,3.8-7.8,6.2-15,6.2
	c-4.4,0-8,3.6-8,8s3.6,8,8,8c12.8,0,19.6-5.4,25-9.8c4.7-3.8,7.8-6.2,15-6.2s10.3,2.5,15,6.2c4.2,3.3,9.1,7.3,17,8.9v47.3
	c-2.4-1.1-4.5-2.7-7-4.7c-5.4-4.3-12.2-9.8-25-9.8s-19.6,5.4-25,9.8c-4.7,3.8-7.8,6.2-15,6.2c-4.4,0-8,3.6-8,8s3.6,8,8,8
	c12.8,0,19.6-5.4,25-9.8c4.7-3.8,7.8-6.2,15-6.2s10.3,2.5,15,6.2c4.2,3.3,9.1,7.3,17,8.9V286.4z M160,144h48v48h-48V144z M160,208
	h48v48h-48V208z M208,328c0,13.2-10.8,24-24,24s-24-10.8-24-24v-56h48V328z M160,72c0-13.2,10.8-24,24-24s24,10.8,24,24v56h-48V72z"
	/>
</svg>
