<?xml version="1.0" encoding="utf-8"?>
<!-- Generator: Adobe Illustrator 25.2.1, SVG Export Plug-In . SVG Version: 6.00 Build 0)  -->
<svg version="1.1" id="Layer_1" xmlns="http://www.w3.org/2000/svg" xmlns:xlink="http://www.w3.org/1999/xlink" x="0px" y="0px"
	 viewBox="0 0 511 511" style="enable-background:new 0 0 511 511;" xml:space="preserve">
<style type="text/css">
	.st0{fill:#FFFFFF;stroke:#000000;stroke-miterlimit:10;}
</style>
<path class="st0" d="M256.2,432.8c-2.6,0-5.2,1.1-7.1,2.9c-1.9,1.9-2.9,4.4-2.9,7.1c0,2.6,1.1,5.2,2.9,7.1c1.9,1.9,4.4,2.9,7.1,2.9
	c2.6,0,5.2-1.1,7.1-2.9c1.9-1.9,2.9-4.4,2.9-7.1c0-2.6-1.1-5.2-2.9-7.1C261.4,433.8,258.8,432.8,256.2,432.8z"/>
<path class="st0" d="M479.9,333.2c-1.7-5.2-7.3-8.1-12.6-6.4l-19.7,6.4l9.2-79.9c0.4-3.8-1.3-7.5-4.6-9.6c-3.2-2-7.4-2.1-10.6,0
	l-62.8,39.2c-0.8-33.4-6.4-65.3-16.4-93.5l52.9-29.2c4.6-2.5,6.4-8.2,4.2-13l-16.2-34.7l37.3-57.1c3-4.6,1.7-10.8-2.9-13.8
	c-4.6-3-10.8-1.7-13.8,2.9l-40.3,61.8c-1.9,2.9-2.1,6.6-0.7,9.7l14.6,31.3l-42.6,23.5c-3.2-7.1-6.7-13.8-10.4-20.2
	c-18.4-31.2-41.9-51.3-67.7-58.3c19.8-31.6,50.6-55.6,86.4-66.8l18.7-5.9c5.3-1.6,8.2-7.3,6.5-12.5c-1.6-5.3-7.3-8.2-12.5-6.5
	l-18.7,5.9c-42.6,13.4-79,42.9-101.1,81.5c-22.1-38.7-58.5-68.2-101-81.5l-18.7-5.9c-5.3-1.6-10.9,1.3-12.5,6.5
	c-1.6,5.3,1.3,10.9,6.5,12.5l18.7,5.9c35.7,11.2,66.6,35.2,86.4,66.8c-25.8,7-49.3,27.1-67.7,58.3c-3.8,6.4-7.2,13.2-10.4,20.2
	l-42.6-23.5l14.6-31.3c1.5-3.1,1.2-6.8-0.7-9.7L88.5,44.5c-3-4.6-9.2-5.9-13.8-2.9c-4.6,3-5.9,9.2-2.9,13.8l37.3,57.1l-16.2,34.7
	c-2.2,4.8-0.4,10.4,4.2,13l52.9,29.2c-10,28.2-15.6,60.2-16.4,93.5l-62.8-39.2c-3.3-2-7.4-2-10.6,0c-3.2,2-5,5.8-4.6,9.6l9.2,79.9
	L45,326.8c-5.2-1.7-10.9,1.2-12.6,6.4c-1.7,5.2,1.2,10.9,6.4,12.6L73.3,357c1,0.3,2.1,0.5,3.1,0.5c2.3,0,4.5-0.8,6.3-2.3
	c2.6-2.2,4-5.5,3.6-8.9l-8.6-74.8l56.1,35c0.8,17.3,2.9,34.3,6.3,50.4l-19.4,27.6c-1.6,2.3-2.2,5.2-1.6,8l15.5,66.7l-81.3,18.6
	c-2.7,0.6-4.9,2.3-6.3,4.6c-1.4,2.3-1.8,5.1-1.1,7.8l3.7,13.5c1.2,4.4,5.2,7.4,9.6,7.4c0.9,0,1.8-0.1,2.6-0.4
	c5.3-1.5,8.5-6.9,7-12.3l-0.9-3.4l80.9-18.5c2.6-0.6,4.8-2.2,6.2-4.4c1.4-2.2,1.9-5,1.3-7.6l-16.7-72.1l7-10
	c5.5,17.9,12.6,34.5,21.3,49.2c23.2,39.4,54.5,61,88.3,61c33.8,0,65.2-21.7,88.4-61c8.7-14.7,15.8-31.3,21.3-49.2l7,10l-16.7,72.1
	c-0.6,2.6-0.1,5.3,1.3,7.6c1.4,2.2,3.7,3.8,6.2,4.4l80.9,18.5l-0.9,3.4c-1.5,5.3,1.7,10.8,7,12.3c0.9,0.2,1.8,0.4,2.6,0.4
	c4.4,0,8.4-2.9,9.6-7.4l3.7-13.5c0.7-2.6,0.3-5.4-1.1-7.8c-1.4-2.3-3.7-4-6.3-4.6l-81.3-18.6l15.5-66.7c0.6-2.8,0.1-5.7-1.6-8
	L372.3,357c3.4-16.1,5.5-33.1,6.3-50.4l56.1-35l-8.6,74.8c-0.4,3.4,1,6.7,3.6,8.9c1.8,1.5,4,2.3,6.3,2.3c1,0,2.1-0.2,3.1-0.5
	l34.5-11.2C478.7,344.1,481.6,338.4,479.9,333.2z M256.2,109.4c26.4,0,51.7,18.2,71.1,51.2c1.4,2.3,2.7,4.7,3.9,7.1
	c-42,40-108.2,40-150.2,0c1.3-2.4,2.6-4.8,3.9-7.1C204.5,127.6,229.7,109.4,256.2,109.4z M327.3,421.5c-19.4,33-44.7,51.2-71.1,51.2
	c-26.4,0-51.7-18.2-71.1-51.2c-20.4-34.7-31.7-81-31.7-130.4c0-36.9,6.3-72.1,17.9-102c0.2-0.4,0.4-0.9,0.5-1.3
	c0.1-0.4,0.3-0.7,0.4-1.1c21.4,18.4,47.4,28.5,73.9,30.6v185.6c0,5.5,4.5,10,10,10c5.5,0,10-4.5,10-10V217.2
	c26.5-2,52.5-12.2,73.9-30.6c0.2,0.4,0.3,0.7,0.4,1.1c0.1,0.5,0.3,0.9,0.5,1.3C352.7,219,359,254.1,359,291
	C359,340.5,347.7,386.8,327.3,421.5z"/>
</svg>
