<?xml version="1.0" encoding="utf-8"?>
<!-- Generator: Adobe Illustrator 25.2.1, SVG Export Plug-In . SVG Version: 6.00 Build 0)  -->
<svg version="1.1" id="Capa_1" xmlns="http://www.w3.org/2000/svg" xmlns:xlink="http://www.w3.org/1999/xlink" x="0px" y="0px"
	 viewBox="0 0 512 512" style="enable-background:new 0 0 512 512;" xml:space="preserve">
<style type="text/css">
	.st0{fill:#FFFFFF;stroke:#000000;stroke-miterlimit:10;}
</style>
<g>
	<g>
		<path class="st0" d="M467.7,206.4H512v-30h-56.1L416,213.5h-67.3c-6-9.4-12.3-18.1-18.8-25.9l77.9-30.3l51.4-69.5l-24.1-17.8
			l-46.2,62.5L323.1,158c3.1-6.3,4.8-13.4,4.8-20.9c0-26.6-21.7-48.3-48.3-48.3H271V53.9h-30v34.9h-8.6c-26.6,0-48.3,21.7-48.3,48.3
			c0,7.5,1.7,14.6,4.8,20.9l-65.6-25.6L77.1,69.9L52.9,87.8l51.4,69.5l77.9,30.3c-6.5,7.9-12.8,16.6-18.8,25.9H96l-39.9-37.1H0v30
			h44.3l39.9,37.1h62.1c-4,8-7.8,16.3-11.4,24.9c-0.9,2.1-1.7,4.2-2.5,6.3l-78.9,32.1l-8.1,58.6l-40,24.9l15.9,25.5l51.9-32.3
			l7.7-55.3l39.1-15.9c-6.6,24.6-10,48.4-9.7,69.5c0.6,37.8,13.1,63.7,35.3,72.9c5.9,2.4,11.8,3.5,17.6,3.5c18.5,0,36-10.6,48.7-21
			c0.3-0.3,0.6-0.5,1-0.8c13.3,6.7,28,10.2,43.1,10.2c15.1,0,29.8-3.5,43.1-10.2c0.3,0.3,0.6,0.5,1,0.8c12.7,10.4,30.2,21,48.7,21
			c5.8,0,11.7-1,17.6-3.5c22.2-9.2,34.7-35.1,35.3-72.9c0.3-21.1-3-44.9-9.7-69.5l39.1,15.9l7.7,55.3l51.9,32.3l15.9-25.5l-40-24.9
			l-8.1-58.6l-78.9-32.1c-0.8-2.1-1.7-4.2-2.5-6.3c-3.6-8.6-7.4-16.9-11.4-24.9h62.1L467.7,206.4z M232.4,118.8h47.2
			c10.1,0,18.3,8.2,18.3,18.3s-8.2,18.3-18.3,18.3h-47.2c-10.1,0-18.3-8.2-18.3-18.3S222.3,118.8,232.4,118.8z M226.8,185
			c1.8,0.2,3.7,0.3,5.6,0.3h47.2c1.9,0,3.8-0.1,5.6-0.3c6.5,5.3,13,11.8,19.4,19.2c-4.3,22-11.7,41.4-20.9,55.1
			c-5,7.4-15.3,19.9-27.7,19.9s-22.7-12.5-27.7-19.9c-9.2-13.7-16.5-33-20.9-55.1C213.8,196.8,220.3,190.3,226.8,185z M193,413.9
			c-14.4,11.8-27.5,16.5-35.9,13c-10.1-4.2-16.4-21.3-16.8-45.6c-0.5-29.5,7.5-65.5,22.4-101.3c6.5-15.6,13.9-30.4,22-43.7
			c12.1,37.7,32.4,63.2,56.4,70.8v45.5C226.6,378.6,209.6,400.3,193,413.9z M256,416.5c-7,0-13.8-1.1-20.3-3.2
			c7-8.3,13.8-17.5,20.3-27.5c6.5,10,13.3,19.2,20.3,27.5C269.8,415.4,263,416.5,256,416.5z M371.7,381.3
			c-0.4,24.4-6.7,41.4-16.8,45.6c-8.4,3.5-21.5-1.3-35.9-13c-16.6-13.6-33.6-35.3-48-61.4V307c24-7.5,44.3-33.1,56.4-70.8
			c8.1,13.3,15.5,28.1,22,43.7C364.3,315.8,372.2,351.8,371.7,381.3z"/>
	</g>
</g>
</svg>
