<?xml version="1.0" encoding="utf-8"?>
<!-- Generator: Adobe Illustrator 25.2.1, SVG Export Plug-In . SVG Version: 6.00 Build 0)  -->
<svg version="1.1" id="Layer_5" xmlns="http://www.w3.org/2000/svg" xmlns:xlink="http://www.w3.org/1999/xlink" x="0px" y="0px"
	 viewBox="0 0 512 512" style="enable-background:new 0 0 512 512;" xml:space="preserve">
<style type="text/css">
	.st0{fill:#FFFFFF;stroke:#000000;stroke-miterlimit:10;}
</style>
<g>
	<path class="st0" d="M435.1,216h-62.1l-16,128H292V216h-32v-32h-48v-80h-16.8l-8-80h-46.5l-8,80H116V72H52v32H36v189.1
		C16.3,312.1,4,338.6,4,368s12.3,55.9,32,74.9V520h448V344h-32.9L435.1,216z M420.9,232l2,16h-37.9l2-16H420.9z M383.1,264h41.9
		l10,80h-61.9L383.1,264z M276,344h-66.9c-9-38.1-39-68-77.1-77.1V232h144V344z M137.7,450.7c4.4-7.4,8.2-16.4,11.1-26.7h27
		C165.9,436.1,152.7,445.3,137.7,450.7z M40.2,424h27c2.9,10.4,6.7,19.4,11.1,26.7C63.3,445.3,50.1,436.1,40.2,424z M78.3,285.3
		c-4.4,7.4-8.2,16.4-11.1,26.7h-27C50.1,299.9,63.3,290.7,78.3,285.3z M84,168H52v-16h32V168z M84,184v16H52v-16H84z M84,216v16H52
		v-16H84z M155.8,360c-0.4-11.4-1.5-22.1-3.3-32h33.7c5,9.8,8.3,20.6,9.3,32H155.8z M76.2,360c0.4-11.6,1.7-22.3,3.7-32h56.3
		c2,9.7,3.3,20.4,3.7,32H76.2z M139.8,376c-0.4,11.6-1.7,22.3-3.7,32H79.8c-2-9.7-3.3-20.4-3.7-32H139.8z M148.8,312
		c-2.9-10.4-6.7-19.4-11.1-26.7c15,5.4,28.1,14.7,38.1,26.7H148.8z M132.1,312H83.9c6.3-19.8,15.5-32,24.1-32S125.8,292.2,132.1,312
		z M63.4,328c-1.8,9.9-2.9,20.6-3.3,32H20.4c1-11.4,4.3-22.2,9.3-32H63.4z M60.2,376c0.4,11.4,1.5,22.1,3.3,32H29.7
		c-5-9.8-8.3-20.6-9.3-32H60.2z M83.9,424h48.2c-6.3,19.8-15.5,32-24.1,32S90.2,443.8,83.9,424z M186.3,408h-33.7
		c1.8-9.9,2.9-20.6,3.3-32h39.8C194.6,387.4,191.3,398.2,186.3,408L186.3,408z M244,216h-80v-16h80V216z M196,184h-48v32h-32v48.4
		c-2.6-0.2-5.3-0.4-8-0.4s-5.4,0.2-8,0.4V120h96V184z M155.2,40h17.5l6.4,64h-30.3L155.2,40z M68,88h32v16H68V88z M84,120v16H52v-16
		H84z M52,248h32v18.9c-11.5,2.7-22.3,7.4-32,13.6V248z M52,455.5c16.2,10.4,35.4,16.5,56,16.5s39.8-6.1,56-16.5V504H52L52,455.5z
		 M244,504h-32v-64h32V504z M340,504h-32v-64h32V504z M436,504h-32v-64h32V504z M452,504v-80h-64v80h-32v-80h-64v80h-32v-80h-64v80
		h-16v-61.1c14.1-13.6,24.4-31.2,29.1-50.9H468v112H452z M468,376H211.6c0.2-2.6,0.4-5.3,0.4-8s-0.2-5.4-0.4-8H468V376z"/>
	<path class="st0" d="M460,104h-16.2c-2-18-17.3-32-35.8-32h-20v16h20c11,0,20,9,20,20v12h32c13.2,0,24,10.8,24,24s-10.8,24-24,24
		h-24c-13.2,0-24,10.8-24,24v8h16v-8c0-4.4,3.6-8,8-8h24c22.1,0,40-17.9,40-40S482.1,104,460,104z"/>
	<path class="st0" d="M316,184h56c4.4,0,8,3.6,8,8v8h16v-8c0-13.2-10.8-24-24-24h-56c-4.4,0-8-3.6-8-8s3.6-8,8-8h48v-16h-16
		c-13.2,0-24-10.8-24-24s10.8-24,24-24h24V72h-24c-22.1,0-40,17.9-40,40c0,9,3.1,17.3,8.2,24H316c-13.2,0-24,10.8-24,24
		S302.8,184,316,184z"/>
	<path class="st0" d="M244,248h16v16h-16V248z"/>
	<path class="st0" d="M180,248h16v16h-16V248z"/>
	<path class="st0" d="M148,248h16v16h-16V248z"/>
	<path class="st0" d="M212,248h16v16h-16V248z"/>
	<path class="st0" d="M212,280h16v16h-16V280z"/>
	<path class="st0" d="M244,280h16v16h-16V280z"/>
	<path class="st0" d="M212,312h16v16h-16V312z"/>
	<path class="st0" d="M244,312h16v16h-16V312z"/>
</g>
</svg>
