<?xml version="1.0" encoding="UTF-8"?>
<svg id="Layer_2" data-name="Layer 2" xmlns="http://www.w3.org/2000/svg" viewBox="0 0 122.3 123.87">
  <defs>
    <style>
      .cls-1 {
        fill: #fff;
      }

      .cls-2 {
        fill: #7eaa4b;
      }
    </style>
  </defs>
  <g id="Layer_1-2" data-name="Layer 1">
    <g>
      <path d="M51.53,68.05c1.03,.44,2.01,.84,2.97,1.28,1.1,.51,1.61,1.34,1.59,2.71-.32,15.49-.6,30.99-.86,46.5-.02,1.2-.44,2.11-1.48,2.43-2.25,.69-4.51,1.46-6.82,1.75-5.57,.73-11.22,.43-16.68-.9-1.18-.34-2.34-.78-3.44-1.33-.95-.44-1.41-1.23-1.33-2.41,.11-1.55,.08-3.14,.1-4.49-2.37-.94-4.61-1.83-6.97-2.76-.18,1.6-.36,3.14-.54,4.77l-1.75-.22c.14-1.49,.22-2.95,.42-4.38,.11-.77-.08-1.12-.81-1.26-.8-.16-1.58-.43-2.58-.72-.87,3.35-1.72,6.64-2.62,10.13-1.49-1.13-2.28-.48-3.23,.66-1.72,2.09-6.09,1.26-7.02-1.82-2.04-6.85,2.64-10.77,7.43-11.29,.9-.1,1.2-.5,1.43-1.28,1.16-3.78,2.32-7.56,3.55-11.45-1.16-.8-2.32-1.66-3.54-2.43-.77-.49-.83-.96-.31-1.72,.85-1.25,1.66-2.55,2.42-3.87,.44-.75,.86-.89,1.55-.36,.94,.71,1.94,1.35,2.95,2.05l.5-1.02,2.15,.65c.69-2.16,1.36-4.26,2.02-6.35,3.28-10.45,6.54-20.89,9.8-31.34,.5-1.59,.48-1.58-.84-2.41-.6-.35-1.15-.77-1.65-1.25-.94-.97-.82-1.94,.39-2.44,1.05-.41,2.15-.67,3.26-.77,.66,0,1.23-.47,1.34-1.12,3.66-11.79,7.34-23.57,11.04-35.34,.16-.52,.27-.94-.23-1.32s-.45-.85,.08-1.18c.89-.55,1.34-1.75,2.66-1.77,.42,0,.83-.88,1.24-1.36,.53-.63,1.08-.86,1.74-.19,.87,.89,.99,1.55,.39,2.32-.2,.25-.44,.45-.64,.7-.29,.34-.83,.56-.52,1.22,.05,.1-.21,.41-.39,.57-.46,.48-.96,.92-1.49,1.31-.49,.25-1.01,.45-1.55,.59l-11,35.1c1.85,.03,3.62,0,5.38,.11,4.39,.26,8.78,.55,13.17,.91,.81,.12,1.59,.41,2.28,.86,.84,.49,.95,1.25,.27,1.94-.62,.65-1.35,1.19-2.15,1.59-.63,.28-1.07,.87-1.16,1.55-.48,2.32-.51,2.32-2.81,2.29-1.33-.02-2.66-.07-3.99-.05-.22,0-.43,.27-.65,.42,.22,.15,.42,.42,.65,.45,2.16,.29,4.34,.52,6.51,.77,1.1,.14,1.41,.52,1.39,1.69-.03,2.44-.05,4.88-.16,7.32-.02,.49-.32,1.22-.68,1.39-.62,.29-.69,.65-.69,1.23-.01,1.16-.05,2.29-.07,3.36Zm-25.2,29.23c-.13,7.21-.28,14.19-.35,21.18,.06,.58,.38,1.09,.87,1.4,1.27,.67,2.61,1.19,3.99,1.57,5.13,1.26,10.35,1.41,15.56,.84,2.32-.26,4.65-1.01,6.94-1.64,.97-.27,1.43-1.03,1.44-2.19,.08-6.46,.22-12.91,.33-19.36,0-.39-.02-.77-.03-1.27-9.66,2.24-19.18,2.33-28.75-.54Zm29.07-14.04c0-.39,0-.74,.02-1.1,.06-3.37,.08-6.74,.21-10.11,.04-1.16-.39-1.86-1.32-2.28-1.05-.47-2.13-.88-3.28-1.35l.09-4.57c-3.31,.07-6.55,.24-9.78,.19s-6.46-.31-9.82-.5c-.02,1.3-.09,2.58-.06,3.87,0,.64-.24,.86-.77,1.02-.93,.26-1.83,.58-2.71,.97-.8,.36-1.21,.98-1.21,2.02,0,3.4-.1,6.81-.16,10.22,0,.39,0,.77,.03,1.11,8.24,1.37,20.89,1.6,28.77,.49Zm-28.95,13.71c3.13,.58,6.2,1.29,9.29,1.67,6.15,.77,12.25,.17,18.3-1.12,.73-.15,1.01-.43,1.01-1.25,.03-3.84,.13-7.68,.2-11.51-.01-.29-.04-.57-.09-.86-9.48,.94-19.03,.78-28.47-.5l-.26,13.57Zm14.61-33.36l10.32-.39c.56-.02,.99-.18,1-.92,.03-2.54,.11-5.08,.12-7.63,0-.28-.26-.77-.45-.81-1.8-.34-3.63-.56-5.46-.67-2.88-.08-5.81,.31-8.65,.02-2.27-.24-4.46-.07-6.7,.08-.71,.05-1.07,.39-1.07,1.22,0,2.37-.03,4.73-.13,7.09-.04,.93,.39,1.18,1.13,1.24l9.89,.76Zm-15.43,47.77c0-.67,.02-1.09,.03-1.52,.23-12.81,.46-25.61,.68-38.42,0-1.27,.48-2.06,1.52-2.51s2.03-.8,3.07-1.2l.08-4.23c-1.47-.48-1.55-.62-1.55-2.22,0-1.09,.04-2.18,.06-3.27l-.21-.03c-3.1,9.91-6.2,19.84-9.29,29.78l1.85,.75c-.33,1.05-.63,1.99-.91,2.95-.07,.26-.16,.72-.07,.77,.59,.39,.22,.81,.11,1.2-.32,1.16-.84,2.3-.99,3.49-.45,3.7-.77,7.42-1.12,11.13,.02,.37,.22,.7,.53,.91,1.29,.64,2.62,1.22,3.95,1.76,.74,.26,1.49,.48,2.25,.67Zm15.8-61.5h0c2.52,.05,5.03,.07,7.56,.15,.68,0,1.02-.16,.98-.95-.04-.68-.02-1.36,.04-2.04,.06-.7-.15-1-.86-1.12-4.44-.79-8.96-.95-13.44-.48-2.71,.29-2.68,.34-2.76,3.16-.03,.95,.34,1.16,1.12,1.16,2.46,0,4.91,.07,7.36,.12ZM8.29,108.75c-3.87-.45-7.67,3.92-5.89,8.52,.41,1.06,1.01,1.55,1.99,1.65,.96,.17,1.92-.33,2.35-1.21-.12-.08-.25-.14-.39-.18-1-.17-1.18-.71-.74-1.64,.51-1.04,1-2.1,1.41-3.19,.47-1.27,.84-2.58,1.28-3.95Zm8.59-.75c.08-.08,.12-.1,.12-.13,.39-3.49,.76-6.97,1.09-10.46,.02-.26-.33-.56-.67-1.09-1.2,3.83-2.28,7.28-3.38,10.82l2.84,.86Zm14.22-55.34c2.25-.15,4.42-.29,6.58-.47,.2-.02,.39-.28,.58-.43-.21-.15-.42-.43-.64-.44-1.67-.07-3.35,0-5.01-.14-1.07-.07-1.49,.36-1.51,1.48Z"/>
      <path class="cls-1" d="M26.33,97.29c9.56,2.87,19.08,2.78,28.75,.54,0,.51,.04,.89,.03,1.27-.12,6.45-.26,12.91-.33,19.36,0,1.16-.47,1.94-1.44,2.19-2.3,.63-4.6,1.38-6.94,1.64-5.21,.57-10.43,.41-15.56-.84-1.38-.38-2.72-.9-3.99-1.57-.48-.31-.8-.82-.86-1.39,.07-7.01,.22-13.99,.34-21.2Z"/>
      <path class="cls-1" d="M55.4,83.25c-7.88,1.11-20.52,.89-28.76-.5,0-.35-.03-.73-.03-1.11,.06-3.41,.16-6.82,.16-10.22,0-1.04,.41-1.66,1.21-2.02,.88-.39,1.79-.71,2.71-.97,.54-.16,.77-.39,.77-1.02-.03-1.28,.03-2.56,.06-3.87,3.37,.18,6.58,.45,9.82,.5s6.47-.12,9.78-.19l-.09,4.57c1.16,.47,2.22,.88,3.28,1.35,.93,.42,1.37,1.12,1.32,2.28-.13,3.37-.15,6.74-.21,10.11-.02,.36-.03,.72-.04,1.11Z"/>
      <path class="cls-2" d="M26.46,96.95l.25-13.55c9.44,1.27,18.99,1.44,28.47,.49,.05,.28,.07,.57,.09,.86-.07,3.84-.17,7.68-.2,11.51,0,.81-.28,1.09-1.01,1.25-6.05,1.29-12.15,1.89-18.3,1.12-3.1-.38-6.16-1.1-9.29-1.68Z"/>
      <path class="cls-2" d="M41.07,63.58l-9.89-.77c-.75-.05-1.16-.31-1.13-1.24,.1-2.36,.14-4.73,.13-7.09,0-.84,.36-1.16,1.07-1.22,2.23-.15,4.43-.31,6.7-.08,2.86,.29,5.77-.1,8.65-.02,1.83,.11,3.66,.33,5.46,.67,.19,.03,.45,.53,.45,.81,0,2.54-.09,5.09-.12,7.63,0,.74-.44,.89-1,.92l-10.32,.41Z"/>
      <path d="M72.57,65.13c.02-.57-.03-.94-.64-1.25-.36-.18-.63-.92-.63-1.41,0-2.44,.05-4.88,.11-7.32,.03-1.16,.35-1.55,1.45-1.64,2.18-.19,4.35-.34,6.53-.55,.23-.02,.45-.28,.67-.43-.21-.15-.42-.43-.64-.44-1.33-.07-2.66-.07-3.99-.1-2.3-.04-2.32-.03-2.71-2.39-.06-.7-.49-1.31-1.12-1.61-.79-.43-1.5-1-2.09-1.67-.65-.74-.51-1.48,.35-1.94,.71-.42,1.5-.69,2.32-.77,4.4-.2,8.79-.33,13.19-.43,1.76-.04,3.53,.05,5.38,.09-3.25-11.89-6.51-23.85-9.68-35.49-.54-.16-1.06-.38-1.55-.65-.52-.41-1-.87-1.44-1.36-.16-.17-.41-.48-.36-.58,.34-.65-.2-.89-.48-1.24-.19-.25-.43-.46-.62-.72-.59-.79-.45-1.45,.46-2.32,.68-.65,1.22-.39,1.73,.25,.39,.5,.77,1.38,1.19,1.4,1.31,.07,1.72,1.28,2.59,1.86,.52,.35,.58,.8,.03,1.18s-.42,.77-.27,1.31c3.23,11.92,6.47,23.83,9.7,35.73,.09,.66,.64,1.15,1.3,1.16,1.11,.14,2.2,.44,3.23,.89,1.2,.55,1.28,1.51,.3,2.45-.52,.46-1.08,.86-1.69,1.19-1.36,.77-1.37,.77-.93,2.38,2.88,10.56,5.76,21.13,8.64,31.69,.58,2.12,1.16,4.24,1.79,6.42l2.17-.57,.46,1.04c1.04-.67,2.06-1.26,3.02-1.94,.71-.5,1.13-.34,1.55,.42,.72,1.34,1.47,2.67,2.28,3.95,.49,.77,.41,1.25-.39,1.71-1.24,.73-2.44,1.55-3.62,2.3,1.06,3.93,2.11,7.74,3.13,11.57,.21,.77,.49,1.2,1.39,1.33,4.77,.7,9.32,4.78,7.01,11.54-1.04,3.05-5.44,3.72-7.08,1.57-.9-1.18-1.67-1.85-3.2-.77-.77-3.52-1.5-6.83-2.25-10.22-1.01,.25-1.8,.49-2.61,.62-.73,.12-.93,.46-.85,1.23,.15,1.44,.18,2.9,.26,4.4l-1.76,.16c-.12-1.63-.24-3.18-.37-4.79l-7.06,2.5c-.03,1.34-.12,2.92-.07,4.49,.04,1.18-.45,1.96-1.42,2.36-1.12,.51-2.29,.91-3.49,1.2-5.5,1.13-11.16,1.23-16.7,.29-2.29-.39-4.53-1.23-6.75-1.99-1.03-.35-1.41-1.28-1.39-2.48,.31-15.49,.59-30.99,.85-46.5,0-1.36,.57-2.16,1.68-2.64,.98-.41,1.97-.77,3.02-1.16,.02-1.11,.02-2.22,.06-3.33Zm-4.71,32.92c-.03,.5-.07,.88-.08,1.26-.12,6.46-.22,12.91-.39,19.36-.03,1.16,.39,1.94,1.36,2.24,2.27,.72,4.55,1.55,6.88,1.89,5.19,.76,10.41,.8,15.58-.27,1.39-.32,2.75-.79,4.04-1.4,.5-.29,.84-.79,.92-1.37,.19-6.97,.29-13.98,.43-21.18-9.65,2.51-19.16,2.09-28.74-.52v-.02Zm28.97-14.02c.02-.35,.06-.73,.07-1.11,.07-3.41,.09-6.82,.22-10.22,.04-1.03-.35-1.67-1.14-2.06-.86-.42-1.75-.77-2.66-1.07-.53-.18-.77-.41-.74-1.05,.07-1.28,.06-2.56,.09-3.87-3.37,.05-6.6,.2-9.84,.13s-6.46-.35-9.77-.55l-.08,4.57c-1.16,.43-2.25,.79-3.32,1.23-.94,.39-1.41,1.06-1.41,2.22,0,3.37-.1,6.74-.16,10.11,0,.35,0,.7-.02,1.1,7.82,1.41,20.49,1.65,28.76,.57Zm-.08,.65c-9.48,.93-19.04,.74-28.47-.55-.05,.28-.09,.57-.11,.85-.07,3.84-.12,7.68-.22,11.51-.02,.81,.24,1.1,.97,1.28,6,1.51,12.07,2.32,18.25,1.8,3.1-.27,6.2-.88,9.34-1.34l.25-13.56Zm-3.72-20.72c.75-.03,1.16-.26,1.16-1.2,0-2.36,.04-4.73,.13-7.09,.03-.85-.32-1.19-1.03-1.27-2.22-.3-4.45-.41-6.69-.32-2.87,.19-5.77-.31-8.65-.34-1.83,.04-3.66,.2-5.47,.47-.19,.02-.47,.51-.48,.77-.08,2.54-.1,5.09-.16,7.63,0,.74,.41,.91,.97,.95l10.3,.77,9.91-.38Zm6.03,48.14c1.36-.49,2.69-1.02,4.01-1.61,.32-.19,.52-.52,.56-.89-.19-3.73-.39-7.45-.71-11.16-.1-1.19-.58-2.35-.86-3.53-.09-.39-.45-.84,.15-1.2,.1-.06,.03-.53-.04-.77-.24-.97-.51-1.94-.8-2.98l1.88-.69-8.21-30.1-.21,.03-.06,3.27c-.03,1.6-.13,1.73-1.62,2.16l-.08,4.23c1.03,.44,2.04,.84,3.03,1.32s1.46,1.3,1.43,2.57c-.27,12.8-.49,25.61-.73,38.41,0,.43,0,.85-.03,1.52,.9-.23,1.61-.34,2.27-.58Zm-8.45-61.32c.77,.03,1.16-.15,1.16-1.11,.02-2.82,.07-2.87-2.64-3.26-4.46-.63-8.99-.63-13.45,0-.71,.1-.93,.39-.9,1.09,.04,.68,.03,1.36-.03,2.04-.08,.77,.26,.98,.94,.98,2.52,.02,5.03,.08,7.56,.13h0c2.46,.02,4.91,.05,7.36,.12Zm24.74,63.9c.36,1.1,.82,2.18,1.28,3.24,.41,.94,.21,1.48-.8,1.61-.14,.04-.27,.1-.39,.17,.38,.91,1.32,1.44,2.3,1.32,.98-.07,1.6-.53,2.05-1.58,1.94-4.54-1.69-9.05-5.58-8.74,.4,1.39,.71,2.7,1.13,3.98Zm-6.82-5.81c-.98-3.57-1.94-7.06-2.98-10.93-.36,.52-.72,.8-.71,1.06,.2,3.49,.46,6.99,.7,10.49,0,.03,.04,.05,.12,.14l2.87-.76Zm-16.52-56.59c-1.67,.07-3.34-.05-5.01-.04-.22,0-.44,.27-.66,.42,.19,.15,.36,.42,.56,.45,2.16,.26,4.32,.48,6.56,.71,.03-1.15-.38-1.59-1.46-1.54Z"/>
      <path class="cls-1" d="M96.61,98.58c-9.66,2.51-19.17,2.08-28.75-.52-.03,.5-.07,.88-.08,1.26-.12,6.46-.22,12.91-.39,19.36-.03,1.16,.39,1.94,1.36,2.24,2.27,.72,4.55,1.55,6.88,1.89,5.19,.76,10.41,.8,15.58-.27,1.39-.33,2.75-.8,4.04-1.42,.5-.29,.84-.79,.92-1.37,.2-6.99,.31-13.98,.44-21.18Z"/>
      <path class="cls-1" d="M68.07,83.47c7.84,1.4,20.49,1.64,28.76,.55,.02-.35,.06-.73,.07-1.11,.07-3.41,.09-6.82,.22-10.22,.04-1.03-.35-1.67-1.14-2.06-.86-.42-1.75-.77-2.66-1.07-.53-.18-.77-.41-.74-1.05,.07-1.28,.06-2.56,.09-3.87-3.37,.05-6.6,.2-9.84,.13s-6.46-.35-9.77-.55l-.08,4.57c-1.16,.43-2.25,.79-3.32,1.23-.94,.39-1.41,1.06-1.41,2.22,0,3.37-.1,6.74-.16,10.11,0,.37-.02,.72-.02,1.11Z"/>
      <path class="cls-2" d="M87.16,99.56c-6.17,.53-12.24-.29-18.25-1.8-.72-.18-.99-.47-.97-1.28,.1-3.84,.15-7.68,.22-11.51,.02-.29,.06-.57,.11-.85,9.44,1.29,18.99,1.48,28.47,.55l-.25,13.55c-3.15,.46-6.23,1.07-9.34,1.34Z"/>
      <path class="cls-2" d="M83.12,64.35l9.91-.39c.75-.03,1.16-.26,1.16-1.2,0-2.36,.04-4.73,.13-7.09,.03-.85-.32-1.19-1.03-1.27-2.22-.3-4.45-.41-6.69-.32-2.87,.19-5.77-.31-8.65-.34-1.83,.04-3.66,.19-5.47,.45-.19,.02-.47,.51-.48,.77-.08,2.54-.1,5.09-.16,7.63,0,.74,.41,.91,.97,.95l10.3,.79Z"/>
    </g>
  </g>
</svg>