<?xml version="1.0" encoding="utf-8"?>
<!-- Generator: Adobe Illustrator 25.2.1, SVG Export Plug-In . SVG Version: 6.00 Build 0)  -->
<svg version="1.1" id="Icons" xmlns="http://www.w3.org/2000/svg" xmlns:xlink="http://www.w3.org/1999/xlink" x="0px" y="0px"
	 viewBox="0 0 512 512" style="enable-background:new 0 0 512 512;" xml:space="preserve">
<style type="text/css">
	.st0{fill:#FFFFFF;stroke:#000000;stroke-miterlimit:10;}
</style>
<path class="st0" d="M422.6,469.8c-15.1,0-41.2-5.8-71.8-37.1c-14.2-11.3-27.1-24-38.5-38.1c-41-48.5-50.6-116.2-24.9-174.2
	c7.1-17.1,18.8-31.9,33.7-42.8c2.9-2,6.9-1.4,9.2,1.3c3.7,4.4,90.6,109.2,123,192.5c0.5,1,19.4,39.3,8.8,69.2
	c-4.3,12.2-13.5,22-25.3,27.1C432.1,469.2,427.4,469.9,422.6,469.8z M323.8,192.9c-10.3,9.2-18.5,20.6-23.9,33.3
	c-23.5,53.2-14.5,115.2,23,159.6c10.9,13.3,23.2,25.4,36.6,36.1c0.3,0.2,0.6,0.4,0.8,0.7c41.5,42.5,70.8,32.4,71.1,32.3
	c8.3-3.5,14.6-10.4,17.6-18.9c8.6-24.4-8.2-58.7-8.4-59C412.7,305.5,341.7,215.1,323.8,192.9z"/>
<path class="st0" d="M91.3,469.8c-4.6,0.1-9.1-0.5-13.5-1.9c-12.1-5-21.5-14.9-25.9-27.3c-10.6-29.9,8.3-68.2,9.1-69.8
	c32.1-82.7,119-187.5,122.7-191.9c2.3-2.7,6.2-3.3,9.2-1.3c14.9,10.9,26.6,25.7,33.8,42.8c25.7,58.1,16,125.7-24.9,174.2
	c-11.5,14-24.4,26.8-38.5,38.1C132.5,464.1,106.3,469.8,91.3,469.8z M190.3,192.9c-18,22.2-89,112.6-116.6,183.6
	c-0.4,0.9-17.3,35.2-8.6,59.6c3,8.6,9.6,15.6,18,19.1c0.7,0.2,29.8,9.4,70.6-32.5c0.3-0.3,0.5-0.5,0.8-0.7
	c13.4-10.7,25.7-22.8,36.6-36.1c37.6-44.4,46.5-106.4,23-159.6C208.7,213.5,200.6,202.1,190.3,192.9z"/>
<path class="st0" d="M257,492.6c-10.7,0-21.1-3.8-29.2-10.9c-29.8-26-42.8-80.3-43.4-82.6c-0.9-3.7,1.4-7.4,5.2-8.3
	c3.7-0.9,7.4,1.4,8.3,5.2c0.1,0.5,12.6,52.3,39,75.4c11.5,10,28.7,10,40.2,0c26.5-23.1,38.9-74.8,39-75.4c0.9-3.7,4.6-6,8.3-5.2
	c3.7,0.9,6,4.6,5.2,8.3c-0.5,2.3-13.6,56.6-43.4,82.6C278.1,488.7,267.7,492.6,257,492.6z"/>
<path class="st0" d="M257,316.2c-9.1-0.1-18.1-1.9-26.4-5.5c-3.5-1.5-5.2-5.5-3.7-9c1.5-3.5,5.5-5.2,9-3.7c13.4,5.9,28.8,5.9,42.2,0
	c3.5-1.5,7.6,0.2,9,3.7c1.5,3.5-0.2,7.6-3.7,9l0,0C275.1,314.3,266.1,316.1,257,316.2z"/>
<path class="st0" d="M491.2,279.2c-0.8,0-1.6-0.1-2.3-0.4l-77.8-27.7c-1.7-0.6-3-1.8-3.8-3.3l-22.4-43.4l-61.6-14.3
	c-3.7-0.9-6-4.6-5.1-8.3c0.9-3.7,4.6-6,8.3-5.1l64.7,15c2,0.5,3.6,1.8,4.6,3.6l22.6,43.8l75.2,26.8c3.6,1.3,5.5,5.2,4.2,8.8
	C496.8,277.4,494.2,279.2,491.2,279.2z"/>
<path class="st0" d="M20.8,279.2c-3.8,0-6.9-3.1-6.9-6.9c0-2.9,1.8-5.5,4.6-6.5L93.6,239l22.6-43.8c0.9-1.8,2.6-3.1,4.6-3.6l66.7-15
	c3.7-0.9,7.5,1.4,8.3,5.1c0.9,3.7-1.4,7.5-5.1,8.3c-0.1,0-0.1,0-0.2,0l-63.6,14.3l-22.4,43.3c-0.8,1.6-2.2,2.8-3.8,3.3l-77.8,27.7
	C22.3,279.1,21.5,279.2,20.8,279.2z"/>
<path class="st0" d="M189.1,190.3c-0.3,0-0.6,0-0.9,0c-3.8-0.5-6.5-3.9-6-7.7c0,0,0,0,0,0c0.1-0.6,8-58.6,76.3-58.6
	c68.6,0,73.3,58.4,73.3,59c0.3,3.8-2.6,7.1-6.5,7.4c-3.8,0.3-7.1-2.6-7.4-6.5c-0.1-1.9-4.1-46.1-59.5-46.1
	c-56.2,0-62.3,44.6-62.6,46.5C195.5,187.7,192.6,190.3,189.1,190.3z"/>
<path class="st0" d="M315.7,164.6c-3.8,0-6.9-3.1-6.9-6.9c0-2,0.8-3.8,2.3-5.1l33.7-30.2l-20.1-64.5c-0.9-2.8,0.1-5.8,2.4-7.5
	l37.8-28.9c3-2.3,7.4-1.7,9.7,1.3c2.3,3,1.7,7.4-1.3,9.7l-33.9,25.9l19.9,64.1c0.8,2.6,0,5.4-2,7.2l-37,33.2
	C319.1,164,317.4,164.6,315.7,164.6z"/>
<path class="st0" d="M200.3,163.8c-1.7,0-3.4-0.6-4.6-1.8l-36.8-33c-2-1.8-2.8-4.6-2-7.2l19.9-64.1l-33.9-25.9
	c-3-2.3-3.6-6.7-1.3-9.7c2.3-3,6.7-3.6,9.7-1.3l37.7,28.8c2.3,1.8,3.3,4.8,2.4,7.5l-20,64.6l33.5,30c2.8,2.5,3.1,6.9,0.5,9.8
	C204.1,163,202.3,163.9,200.3,163.8L200.3,163.8z"/>
<path class="st0" d="M292.4,137.8h-70.7c-16.3,0-29.5-13.2-29.5-29.5c0-8.5,3.7-16.6,10.1-22.2l29.1-25.3
	c14.8-12.8,36.7-12.8,51.4,0l29,25.3c12.3,10.7,13.6,29.3,2.9,41.6C309,134.1,300.9,137.8,292.4,137.8L292.4,137.8z M257,64.9
	c-6.1,0-12,2.2-16.6,6.2l-29.1,25.3c-6.5,5.7-7.2,15.6-1.5,22.1c3,3.4,7.3,5.4,11.8,5.4h70.7c8.7,0,15.7-7,15.7-15.7
	c0-4.5-2-8.8-5.4-11.8l-29-25.3C269.1,67.1,263.1,64.9,257,64.9z"/>
<path class="st0" d="M257,64.9c-3.8,0-6.9-3.1-6.9-6.9V39.8c0-3.8,3.1-6.9,6.9-6.9c3.8,0,6.9,3.1,6.9,6.9V58
	C263.9,61.8,260.8,64.9,257,64.9z"/>
<path class="st0" d="M278.7,137.8c-2.4,0-4.5-1.2-5.8-3.2c-14.4-20.9-9.2-49.6,11.7-64c0.3-0.2,0.6-0.4,0.8-0.6
	c3.2-2,7.5-1.1,9.5,2.2c1.9,3,1.2,7-1.6,9.2l0,0c-15,9.8-19.2,29.9-9.4,44.9c0.2,0.3,0.4,0.6,0.6,0.8c2.1,3.2,1.1,7.5-2.1,9.6
	C281.3,137.4,280,137.8,278.7,137.8L278.7,137.8z"/>
<path class="st0" d="M235.2,137.8c-3.8,0-6.9-3.1-6.9-6.9c0-1.3,0.4-2.6,1.1-3.7c17.4-27-7.7-45-8.8-45.7c-3.1-2.2-3.9-6.5-1.7-9.6
	c2.2-3.1,6.5-3.9,9.6-1.7c21.2,14,27.1,42.5,13.1,63.7c-0.2,0.3-0.4,0.6-0.6,0.8C239.8,136.6,237.6,137.8,235.2,137.8z"/>
</svg>
