<?xml version="1.0" encoding="utf-8"?>
<!-- Generator: Adobe Illustrator 25.2.1, SVG Export Plug-In . SVG Version: 6.00 Build 0)  -->
<svg version="1.1" id="Layer_1" xmlns="http://www.w3.org/2000/svg" xmlns:xlink="http://www.w3.org/1999/xlink" x="0px" y="0px"
	 viewBox="0 0 512 512" style="enable-background:new 0 0 512 512;" xml:space="preserve">
<style type="text/css">
	.st0{fill:#FFFFFF;stroke:#000000;stroke-miterlimit:10;}
</style>
<path class="st0" d="M406,319.6c0,5.5-4.5,10-10,10c-5.5,0-10-4.5-10-10s4.5-10,10-10C401.5,309.6,406,314.1,406,319.6z"/>
<path class="st0" d="M126,319.6c0,5.5-4.5,10-10,10c-5.5,0-10-4.5-10-10s4.5-10,10-10C121.5,309.6,126,314.1,126,319.6z"/>
<path class="st0" d="M53.6,429.3c24.2,0,53.9-7.6,82.4-22.2c11.2,14.1,28.3,22.5,46.6,22.5c24.5,0,46.1-14.7,55.2-37.4l3.4-8.6
	c4.5,3.9,9.6,6,14.8,6c5.3,0,10.3-2.1,14.8-6l3.4,8.6c9.1,22.7,30.8,37.4,55.2,37.4c18.3,0,35.3-8.3,46.6-22.5
	c28.5,14.6,58.2,22.2,82.4,22.2c18.6,0,33.9-4.5,43.1-13.7c10.1-10.1,18.1-30.9-1.8-72.4c-13.6-28.4-37.5-60.4-67.2-90.2
	c-31.5-31.5-65.5-54.9-95.1-66.5l61.2-17.3c5.3-1.5,8.4-7,6.9-12.3c-1.5-5.3-7-8.4-12.3-6.9l-98.6,27.9c-0.2-0.8-0.3-1.5-0.5-2.3
	l28.9-28.9c1.9-1.9,2.9-4.4,2.9-7.1V124l35.5-23.7c4.6-3.1,5.8-9.3,2.8-13.9c-3.1-4.6-9.3-5.8-13.9-2.8l-40,26.7
	c-2.8,1.9-4.5,5-4.5,8.3v16.9l-19.4,19.4c-6.9-13.8-17.4-25.2-30.6-25.2s-23.7,11.4-30.6,25.2L206,135.5v-16.9
	c0-3.3-1.7-6.5-4.5-8.3l-40-26.7c-4.6-3.1-10.8-1.8-13.9,2.8s-1.8,10.8,2.8,13.9L186,124v15.6c0,2.7,1.1,5.2,2.9,7.1l28.9,28.9
	c-0.2,0.7-0.3,1.5-0.5,2.3L118.7,150c-5.3-1.5-10.8,1.6-12.3,6.9c-1.5,5.3,1.6,10.8,6.9,12.3l61.2,17.3
	c-29.5,11.6-63.5,35-95.1,66.5c-29.7,29.7-53.6,61.8-67.2,90.2c-19.9,41.5-11.9,62.3-1.8,72.4C19.7,424.9,35,429.3,53.6,429.3z
	 M219.2,384.8c-6,15.1-20.4,24.8-36.7,24.8c-11.1,0-21.4-4.6-28.8-12.5c29.9-18.8,54.2-43.8,72.3-73.2v25.7c0,3.9,0.8,8.3,2.1,12.7
	L219.2,384.8z M256,369.6c-3-0.4-10-11.7-10-20V228.4c3.2,0.8,6.6,1.3,10,1.3c3.4,0,6.8-0.4,10-1.3v121.3
	C266,357.9,259,369.2,256,369.6z M329.5,409.6c-16.2,0-30.6-9.7-36.7-24.8l-9-22.5c1.4-4.4,2.1-8.8,2.1-12.7v-25.7
	c18,29.3,42.3,54.3,72.3,73.2C350.9,405,340.6,409.6,329.5,409.6z M481.7,351.9c11.2,23.4,13.3,42,5.7,49.7
	c-6.4,6.4-21.8,9.1-40.4,7.2c-62.8-6.6-132.9-55.1-161-129.9v-62.7c0.2-0.3,0.5-0.6,0.8-0.9l21.5,16.1c12.6,9.4,21.9,22.3,26.9,37.3
	c4.4,13.1,11.3,24.9,20.7,35c2,2.1,4.7,3.2,7.4,3.2c2.4,0,4.8-0.9,6.8-2.6c4.1-3.7,4.3-10.1,0.6-14.1c-7.4-8-12.9-17.4-16.4-27.8
	c-6.3-18.8-18-35-33.8-46.9l-22.6-16.9c24.9-1.6,72.6,20.7,120.7,68.8C446.6,295.4,469.1,325.5,481.7,351.9z M256,149.7
	c3.9,0,12.3,9.2,17.4,25.8c1.3,4.1,2.8,10.7,2.6,14.7c-0.8,12.5-10.4,19.5-20,19.5c-11.4,0-20-9.4-20-20c0-4.4,1.3-9.9,2.6-14.2
	C243.7,158.9,252.1,149.7,256,149.7z M30.3,351.9c12.6-26.4,35.1-56.5,63.3-84.7c48.1-48.1,95.8-70.4,120.7-68.8l-22.5,16.9
	c-15.9,11.9-27.6,28.1-33.8,46.9c-3.5,10.4-9,19.8-16.4,27.8c-3.7,4.1-3.5,10.4,0.6,14.1c4.1,3.7,10.4,3.5,14.1-0.6
	c9.3-10.1,16.3-21.9,20.7-35c5-14.9,14.3-27.8,26.9-37.3l21.5-16.1c0.2,0.3,0.5,0.6,0.8,0.9v62.7c-27.8,74.1-97.5,123.3-161,129.9
	c-18.6,1.9-34.1-0.8-40.4-7.2C17,393.9,19.1,375.3,30.3,351.9z"/>
</svg>
