<?xml version="1.0" encoding="utf-8"?>
<!-- Generator: Adobe Illustrator 25.2.1, SVG Export Plug-In . SVG Version: 6.00 Build 0)  -->
<svg version="1.1" id="Layer_1" xmlns="http://www.w3.org/2000/svg" xmlns:xlink="http://www.w3.org/1999/xlink" x="0px" y="0px"
	 viewBox="0 0 512 512" style="enable-background:new 0 0 512 512;" xml:space="preserve">
<style type="text/css">
	.st0{fill:#FFFFFF;stroke:#000000;stroke-miterlimit:10;}
</style>
<g id="Page-1">
	<g id="_x30_15---Rat">
		<path id="Shape" class="st0" d="M511.7,122.2c0-0.4-0.1-0.9-0.2-1.3c-2.6-12.2-21.7-19.2-56.5-30.8c-18.2-5.6-37.1-8.5-56.1-8.5
			c-4.3-16.6-15.7-34.6-40.4-34.6c-9.8-0.1-18.8,5.1-23.7,13.5c-4.6,8-6.8,17.2-6.5,26.4c0,0.5,0,1,0.1,1.5c-4.3,1.5-8.6,3.1-13,4.9
			c-14.1,5.9-28.8,10.5-43.8,13.7c-16.3,3.4-33.2,2.8-49.2-1.8c-19.7-4.7-39.9-7-60.1-6.9C96,98.1,0,154.6,0,243.2
			c0,69.9,10.9,104.3,38.5,120.2c6.2,30.3,19.7,61.4,48.4,73.6c36,15.9,92.9,14.2,165.1,12c29.3-0.9,59.6-1.7,92.2-1.7
			c22.2,0.1,74.2,0.3,100.2,11.3c10.3,4.4,22.2-0.3,26.9-10.5s0.3-22.2-9.8-27.1c-41.7-20.4-122.9-22.7-201.3-24.9
			c-50.6-1.4-98.3-2.8-128.2-9.1c-6.8-1.2-13.4-3.5-19.5-6.7c-2.6-4-4.5-8.3-5.7-12.9c15.8-4.2,31.3-9.5,46.4-15.9
			c2.7,5.4,5.3,11.2,7.6,17.2c2.5,6.7,8.8,11.2,16,11.2h75.4c5.9,0,11.5-3.1,14.6-8.2c3.1-5.1,3.3-11.4,0.6-16.7
			c-8.6-17-21.7-26.3-36.9-26.3c-12.9,0-20-0.5-23.2-5.8c3-2.1,5.7-4.2,8.2-6.1c13.7-10.4,21.2-16.1,59.1-22.4
			c0.3,0,0.5-0.1,0.9-0.2c18.8,7.6,36.2,18.4,51.5,31.9c7.9,7.7,14.1,17.1,18.1,27.4c3.5,8.3,7.5,17.8,22.1,17.8h41
			c5.5,0,10.8-2.7,14-7.2c3.2-4.4,4-10,2.3-15.1c-4.4-13.6-15.2-24.2-28.9-28.4c-14.8-4.9-32.1-35-43.8-64.7
			c10.5-9.9,18.5-22,23.6-35.5c7-21,11.4-28.3,51.6-28.3c46.2,0,84.5-44.2,85.3-67.5c0-0.1,0-0.3,0-0.4c0-0.1,0-0.3,0-0.4
			C511.9,123.2,511.8,122.7,511.7,122.2L511.7,122.2z M128.4,403.6c31.4,6.6,79.9,8,131.2,9.5c73.1,2.1,155.9,4.4,194.3,23.2
			c1.8,0.8,2.6,3,1.8,4.8c-0.8,1.8-3,2.6-4.8,1.8c-25.7-10.8-68.4-12.5-106.8-12.7h-5.3c-30.9,0-59.6,0.9-87.5,1.7
			c-69.9,2.1-125.2,3.8-157.8-10.6c-24.2-10.2-34.7-40.8-39.3-65.8c0-0.1,0-0.3-0.1-0.4c-1.1-6.3-1.9-12.2-2.4-17.3
			c-0.7-6.7,2.8-13.1,8.8-16.2s13.2-2.2,18.3,2.1c3.6,3.1,5.6,7.6,5.7,12.3c0.4,8.7,2.6,38.2,13.7,53.9
			C103.5,397.7,121.1,402,128.4,403.6L128.4,403.6z M426.7,174.9c-46.3,0-58,10.5-67.8,40c-3.2,8.4-7.9,16.1-13.9,22.7
			c-1.5-4.7-2.8-9.3-3.9-13.6c-0.7-3-3-5.3-5.9-6.2c-2.9-0.8-6.1-0.1-8.3,2.1c-2.2,2.1-3.1,5.3-2.3,8.3c2.4,9.4,5.4,18.7,8.8,27.8
			c0.1,0.2,0.1,0.4,0.2,0.6c12.1,32.4,32.7,72.1,56.3,80c8.5,2.5,15.2,9.1,18,17.5h-41c-3.2,0-3.2,0-6.4-7.4
			c-4.9-12.3-12.3-23.5-21.7-32.8c-26.7-26.7-78-44-80.1-44.7c-2.1-0.7-4.5-0.5-6.5,0.5c-2,1-3.6,2.8-4.3,4.9
			c-0.8,2.5-0.4,5.2,1.1,7.4c-15.8,3.2-30.6,10.2-43.1,20.5c1.3-6.1,3-12.1,4.9-18c6.3-20.2,14.2-45.3,1.6-70.6
			c-19.8-39.6-75.9-56-101.5-56c-4.7,0-8.5,3.8-8.5,8.5c0,4.7,3.8,8.5,8.5,8.5c22.6,0,70.8,15.5,86.2,46.5
			c9.6,19.1,3.4,38.8-2.6,57.9c-3.9,10.3-6.2,21.2-6.9,32.2c0,3.1,0.3,6.2,0.9,9.2c0,0.2,0.1,0.5,0.1,0.7
			c4.8,24.1,27.5,24.2,41.7,24.2c8.6,0,15.9,5.7,21.7,17.1l-75.4-0.1c-3.4-8.7-7.2-17.1-11.6-25.3c0-0.1,0-0.1,0-0.2
			c-0.1-0.1-0.2-0.2-0.2-0.3c-6.5-12.2-12.2-20.9-12.6-21.5c-1.7-2.5-4.6-4-7.7-3.8c-3,0.2-5.7,2-7.1,4.7s-1.1,6,0.6,8.5
			c0.1,0.1,3,4.6,7.1,11.6c-13.6,5.8-27.6,10.5-41.8,14.3c-0.8-5.4-1.3-10.7-1.5-15.4c-0.3-9.3-4.4-18.1-11.3-24.2
			s-16.2-9.1-25.5-8.2c-17.9,1.7-31.2,17.2-30.1,35.1c-10.3-13.5-17.8-39.5-17.8-94.7c0-78.1,85.9-128,145.1-128
			c19-0.1,38,2.1,56.5,6.5c18.3,5.1,37.5,5.7,56.1,1.9c16-3.4,31.6-8.2,46.6-14.5c3.1-1.2,6.2-2.4,9.2-3.5
			c5.1,19.3,17.9,35.3,36.4,35.3c4.7,0,8.5-3.8,8.5-8.5s-3.8-8.5-8.5-8.5c-12.8,0-21.7-19.5-21.7-36.9c-0.2-6.1,1.1-12.1,4-17.4
			c1.8-3.4,5.4-5.5,9.2-5.4c25.1,0,25.6,32.6,25.6,34.1c0,4.6,3.7,8.3,8.2,8.5c4.6,0.1,8.4-3.4,8.7-7.9c16.5,0.2,32.9,2.7,48.6,7.6
			c7.3,2.4,16.9,5.6,25.5,8.9c-1.2,0.7-2.2,1.6-3.2,2.6c-3.2,3.3-3.2,8.7,0.1,12s8.6,3.3,12,0.1c1.8-1.8,5.9-1.5,9.7-0.5
			C487.5,144.9,459.8,174.9,426.7,174.9L426.7,174.9z"/>
		<path id="Shape_1_" class="st0" d="M418.1,115.2h-8.5c-4.7,0-8.5,3.8-8.5,8.5s3.8,8.5,8.5,8.5h8.5c4.7,0,8.5-3.8,8.5-8.5
			S422.8,115.2,418.1,115.2z"/>
	</g>
</g>
</svg>
