<?xml version="1.0" encoding="utf-8"?>
<!-- Generator: Adobe Illustrator 25.2.1, SVG Export Plug-In . SVG Version: 6.00 Build 0)  -->
<svg version="1.1" id="Capa_1" xmlns="http://www.w3.org/2000/svg" xmlns:xlink="http://www.w3.org/1999/xlink" x="0px" y="0px"
	 viewBox="0 0 512 512" style="enable-background:new 0 0 512 512;" xml:space="preserve">
<style type="text/css">
	.st0{fill:#FFFFFF;stroke:#000000;stroke-miterlimit:10;}
</style>
<g>
	<g>
		<path class="st0" d="M404,241.5l-50.9-29.1c-4.9-2.8-10.7-3.8-16.3-2.6l-26.5,5.3c-0.9-9.7-2.2-19.1-3.9-28l19.9-9.9
			c1.8-0.9,3.9-1.1,5.8-0.7l52.4,12.7c4,1,8.1-1.5,9.1-5.5c1-4-1.5-8.1-5.5-9.1l-52.4-12.7c-5.4-1.3-11.1-0.7-16,1.8L303,172
			c-1.1-4.2-2.3-8.2-3.6-12.1c2.6-3.3,4.2-7.5,4.2-12.1c0-1.7-0.2-3.3-0.6-4.8l63.6-24.5c16.6-6.4,26.9-23.2,25.2-41
			c-2.1-20.8-9.7-50.8-34.2-75.3c-2.9-2.9-7.7-2.9-10.6,0s-2.9,7.7,0,10.6c11.1,11.1,18.3,23.3,22.8,35.5c3,8.2,2.4,17.2-2.5,20
			c-5,2.9-14.4,0.3-24-11.8c-6.2-13.4-14.6-27.1-25.7-38.2c-2.9-2.9-7.7-2.9-10.6,0s-2.9,7.7,0,10.6c26.8,26.8,36,72.5,37.7,82.1
			l-51.1,19.7c-2.8-1.5-5.9-2.4-9.3-2.4c-0.2,0-0.4,0-0.6,0c-10.2-13.2-20.5-16.1-27.5-16.1c-7,0-17.3,2.9-27.5,16.1
			c-0.2,0-0.4,0-0.6,0c-3.4,0-6.5,0.9-9.3,2.4L167.5,111c1.7-9.6,10.8-55.3,37.7-82.1c2.9-2.9,2.9-7.7,0-10.6
			c-2.9-2.9-7.7-2.9-10.6,0c-11.1,11.1-19.5,24.8-25.7,38.2c-9.6,12.1-19,14.7-24,11.8c-4.9-2.8-4.4-12.8-2.5-20
			c3.3-12.4,11.7-24.4,22.8-35.5c2.9-2.9,2.9-7.7,0-10.6c-2.9-2.9-7.7-2.9-10.6,0c-24.5,24.5-32.1,54.5-34.2,75.3
			c-1.8,17.8,8.6,34.6,25.2,41L209,143c-0.4,1.5-0.6,3.1-0.6,4.8c0,4.6,1.6,8.8,4.2,12.1c-1.3,3.9-2.5,7.9-3.6,12.1l-16.6-8.3
			c-5-2.5-10.7-3.1-16-1.8L124,174.6c-4,1-6.5,5-5.5,9.1s5,6.5,9.1,5.5l52.4-12.7c2-0.5,4-0.2,5.8,0.7l19.9,9.9
			c-1.7,8.9-3,18.3-3.9,28l-26.5-5.3c-5.6-1.1-11.4-0.2-16.3,2.6L108,241.5c-3.6,2.1-4.8,6.6-2.8,10.2c1.4,2.4,3.9,3.8,6.5,3.8
			c1.3,0,2.5-0.3,3.7-1l50.9-29.1c1.8-1,3.9-1.4,5.9-1l28.5,5.7c-0.2,4.6-0.3,9.2-0.3,13.8c0,6.3,0.2,12.5,0.5,18.6l-14.2-3.5
			c-8.2-2.1-17,0.5-22.8,6.7l-27.6,29.3c-2.8,3-2.7,7.8,0.3,10.6c1.4,1.4,3.3,2,5.1,2c2,0,4-0.8,5.5-2.4l27.6-29.3
			c2.1-2.2,5.3-3.2,8.3-2.4l19.1,4.8c4,36.5,14.1,67.1,28.2,83.7c-1.3,3.2-2,6.6-2,10.2v8c0,8.3,3.7,15.8,9.6,20.9
			c-3.5,4.1-5.6,9.4-5.6,15.2v16c0,9.2,5.3,17.2,13.1,21.1c-4.7,8.9-3.3,20.2,4.2,27.6l5.7,5.7c4.6,4.6,10.6,6.9,16.6,6.9
			c3,0,6-0.6,8.8-1.7c1.7,11.3,11.5,20.1,23.3,20.1h8c11.4,0,20.9-8.2,23.1-19c3.5,1.9,7.4,2.9,11.3,2.9c6,0,12.1-2.3,16.6-6.9
			l5.7-5.7c8.2-8.2,9.1-21.1,2.5-30.3c7.4-4,12.4-11.8,12.4-20.7v-8c0-10.4-6.7-19.2-16-22.3v-41.8c0-4.1-3.4-7.5-7.5-7.5
			s-7.5,3.4-7.5,7.5V402c-9.3,3.1-16,11.9-16,22.3v8c0,5.1,1.6,9.8,4.4,13.7c-2,1.1-3.9,2.4-5.5,4.1l-5.7,5.7
			c-3.4,3.4-5.6,7.6-6.4,12.1c-3.4-1.9-7.2-2.9-11.3-2.9h-8c-3.1,0-6.1,0.6-8.8,1.7c-0.7-4.8-2.9-9.5-6.6-13.2l-5.7-5.7
			c-1.9-1.9-4-3.3-6.2-4.4c1.7-3.3,2.7-7,2.7-11v-16c0-5.8-2.1-11.1-5.6-15.2c5.9-5.1,9.6-12.5,9.6-20.9v-8c0-3.6-0.7-7.1-2-10.2
			c14.1-16.6,24.3-47.2,28.2-83.7l19.1-4.8c3-0.7,6.2,0.2,8.3,2.4l27.6,29.3c1.5,1.6,3.5,2.4,5.5,2.4c1.8,0,3.7-0.7,5.1-2
			c3-2.8,3.1-7.6,0.3-10.6l-27.6-29.3c-5.8-6.2-14.6-8.7-22.8-6.7l-14.2,3.5c0.3-6.1,0.5-12.3,0.5-18.6c0-4.6-0.1-9.3-0.3-13.8
			l28.5-5.7c2-0.4,4.1-0.1,5.9,1l50.9,29.1c1.2,0.7,2.5,1,3.7,1c2.6,0,5.1-1.4,6.5-3.8C408.9,248.1,407.6,243.5,404,241.5z
			 M362.8,84.4c4.2,0,8.2-1,11.8-3.1c0.8-0.5,1.5-1,2.3-1.5c0.7,10.8-5.6,20.8-15.7,24.7l-2.4,0.9c-0.9-5-2.7-13.1-5.7-22.8
			C356.3,83.8,359.6,84.4,362.8,84.4z M153.3,105.5l-2.4-0.9c-10.1-3.9-16.4-13.9-15.7-24.7c0.7,0.5,1.5,1,2.3,1.5
			c3.6,2,7.6,3.1,11.8,3.1c3.2,0,6.4-0.6,9.7-1.8C156,92.3,154.2,100.5,153.3,105.5z M351.7,424.3c0-4.7,3.8-8.5,8.5-8.5
			s8.5,3.8,8.5,8.5v8c0,4.7-3.8,8.5-8.5,8.5s-8.5-3.8-8.5-8.5V424.3z M340.5,466.4l5.7-5.7c1.7-1.7,3.8-2.5,6-2.5s4.4,0.8,6,2.5
			c3.3,3.3,3.3,8.7,0,12.1l-5.7,5.7c-3.3,3.3-8.7,3.3-12.1,0l0,0C337.2,475.1,337.2,469.7,340.5,466.4z M304.1,479.9h8
			c4.7,0,8.5,3.8,8.5,8.5s-3.8,8.5-8.5,8.5h-8c-4.7,0-8.5-3.8-8.5-8.5S299.4,479.9,304.1,479.9z M284.1,143.3c2.5,0,4.5,2,4.5,4.5
			s-2,4.5-4.5,4.5s-4.5-2-4.5-4.5S281.6,143.3,284.1,143.3z M227.9,143.3c2.5,0,4.5,2,4.5,4.5s-2,4.5-4.5,4.5s-4.5-2-4.5-4.5
			S225.4,143.3,227.9,143.3z M226,167.2c0.6,0.1,1.3,0.1,1.9,0.1c10.8,0,19.5-8.8,19.5-19.5c0-5-1.9-9.5-4.9-12.9
			c3.7-4.1,8.3-7.6,13.5-7.6c5.2,0,9.8,3.6,13.5,7.6c-3.1,3.4-4.9,8-4.9,12.9c0,10.8,8.8,19.5,19.5,19.5c0.6,0,1.3,0,1.9-0.1
			c2.6,8.2,4.8,17.1,6.5,26.7c-11-4.2-23.5-6.4-36.4-6.4c-12.9,0-25.4,2.2-36.4,6.4C221.3,184.3,223.4,175.4,226,167.2z
			 M243.5,380.3v-8c0-6.9,5.6-12.5,12.5-12.5c6.9,0,12.5,5.6,12.5,12.5v8c0,6.9-5.6,12.5-12.5,12.5
			C249.1,392.8,243.5,387.2,243.5,380.3z M247.5,432.4v-16c0-4.7,3.8-8.5,8.5-8.5c4.7,0,8.5,3.8,8.5,8.5v16c0,4.7-3.8,8.5-8.5,8.5
			S247.5,437.1,247.5,432.4z M278.1,464.1c3.3,3.3,3.3,8.7,0,12.1c-3.3,3.3-8.7,3.3-12.1,0l-5.7-5.7c-3.3-3.3-3.3-8.7,0-12.1
			c1.7-1.7,3.8-2.5,6-2.5c2.2,0,4.4,0.8,6,2.5L278.1,464.1z M292.2,295.1c-1-0.5-2-1.1-3.1-1.6c-3.7-1.8-8.2-0.2-10,3.5
			c-1.8,3.7-0.2,8.2,3.5,10c2.2,1,4.2,2.2,6.2,3.5c-4.2,16.5-10,30.2-16.8,39.3c-4.5-3.3-10.1-5.2-16.1-5.2c-6,0-11.6,1.9-16.1,5.2
			c-6.9-9.1-12.6-22.7-16.8-39.3c9.3-6.1,20.8-9.4,32.9-9.4c4.1,0,7.5-3.4,7.5-7.5s-3.4-7.5-7.5-7.5c-13,0-25.5,3.1-36.2,8.9
			c-1.3-7.5-2.4-15.4-3.1-23.5c11.1-5.3,24.9-8.1,39.3-8.1c14.5,0,28.3,2.9,39.4,8.2C294.6,279.8,293.6,287.7,292.2,295.1z
			 M296.4,255.8c-12-4.7-25.9-7.3-40.4-7.3c-14.4,0-28.4,2.5-40.4,7.2c-0.1-3.9-0.2-7.8-0.2-11.8c0-1.5,0-2.9,0-4.4
			c11.4-5.3,25.6-8.1,40.5-8.1c1.4,0,2.8,0,4.1,0.1c4.2,0.2,7.6-3.1,7.8-7.2c0.1-4.1-3.1-7.6-7.2-7.8c-1.5-0.1-3.1-0.1-4.7-0.1
			c-14.2,0-27.9,2.3-39.9,6.7c0.3-3.9,0.6-7.8,1-11.7c10.8-5.8,24.5-9,38.9-9c14.4,0,28,3.2,38.9,9c0.4,3.8,0.7,7.7,1,11.7
			c-0.6-0.2-1.2-0.5-1.8-0.7c-3.9-1.3-8.2,0.8-9.5,4.7c-1.3,3.9,0.8,8.2,4.7,9.5c2.6,0.9,5,1.9,7.3,2.9c0,1.5,0,2.9,0,4.4
			C296.6,247.9,296.5,251.9,296.4,255.8z"/>
	</g>
</g>
</svg>
