<?xml version="1.0" encoding="utf-8"?>
<!-- Generator: Adobe Illustrator 25.2.1, SVG Export Plug-In . SVG Version: 6.00 Build 0)  -->
<svg version="1.1" id="Outline" xmlns="http://www.w3.org/2000/svg" xmlns:xlink="http://www.w3.org/1999/xlink" x="0px" y="0px"
	 viewBox="0 0 512 512" style="enable-background:new 0 0 512 512;" xml:space="preserve">
<style type="text/css">
	.st0{fill:#FFFFFF;stroke:#000000;stroke-miterlimit:10;}
</style>
<path class="st0" d="M153.6,243.2L132,272H48c-4.4,0-8,3.6-8,8s3.6,8,8,8h88c2.5,0,4.9-1.2,6.4-3.2l22.5-30l46.9-15.6
	c1.2,1.8,2.6,3.6,4,5.3c-12.8,8.7-23,20.7-29.6,34.7c-15.3,10.9-36.6,30.5-54.6,63.5c-21.1,38.9-33.1,87.7-35.6,145.1
	c-0.2,4.4,3.2,8.1,7.6,8.3c0.1,0,0.2,0,0.4,0c4.3,0,7.8-3.4,8-7.7c4.3-99.6,37.3-153.1,65.3-180.9c-0.9,5.5-1.3,11-1.3,16.6
	c0,50.7,35.9,92,80,92s80-41.3,80-92c0-5.5-0.4-11.1-1.3-16.6c28.1,27.8,61,81.3,65.3,180.9c0.2,4.3,3.7,7.6,8,7.7
	c0.1,0,0.2,0,0.4,0c4.4-0.2,7.8-3.9,7.6-8.3c-2.5-57.4-14.5-106.2-35.6-145.1c-17.9-33-39.3-52.6-54.6-63.5
	c-6.6-14-16.9-25.9-29.6-34.7c1.4-1.7,2.8-3.5,4-5.3l46.9,15.6l22.5,30c1.5,2,3.9,3.2,6.4,3.2h88c4.4,0,8-3.6,8-8s-3.6-8-8-8h-84
	l-21.6-28.8c-1-1.3-2.3-2.3-3.9-2.8l-46.9-15.6c0.9-2.5,1.7-5.1,2.3-7.7l100.6-33.5c2-0.7,3.7-2.1,4.6-4l48-96
	c2-3.9,0.4-8.8-3.5-10.8c-3.9-2-8.8-0.4-10.8,3.5c0,0,0,0.1-0.1,0.1l-46.5,93L312,199.6c0-7-1.1-13.9-3.1-20.6l39.8-28.4
	c1.8-1.3,3-3.3,3.3-5.5l16-120c0.6-4.4-2.5-8.4-6.9-9c-4.4-0.6-8.4,2.5-9,6.9l0,0l-15.5,116.6L302.3,164c-3.5-6-8.1-11.3-13.4-15.7
	c4.7-11,8.1-28.2-1.7-47.8c-2-3.9-6.8-5.5-10.8-3.5c-3.9,2-5.5,6.7-3.5,10.6c6.3,12.6,5.3,23.8,2.2,32.2c-12.2-5.1-25.9-5.1-38.1,0
	c-3.1-8.5-4.1-19.6,2.2-32.2c2-3.9,0.4-8.8-3.5-10.8s-8.8-0.4-10.8,3.5c0,0,0,0.1-0.1,0.1c-9.8,19.6-6.4,36.8-1.7,47.8
	c-5.3,4.5-9.8,9.8-13.4,15.7l-34.3-24.5L159.9,22.9c-0.6-4.4-4.6-7.5-9-6.9c-4.4,0.6-7.5,4.6-6.9,9l16,120c0.3,2.2,1.5,4.2,3.3,5.5
	l39.8,28.4c-2,6.7-3.1,13.6-3.1,20.6l-90.3-30.1l-46.5-93c-1.9-4-6.7-5.6-10.7-3.7s-5.6,6.7-3.7,10.7c0,0,0,0.1,0.1,0.1l48,96
	c0.9,1.9,2.6,3.3,4.6,4L202,217.1c0.6,2.6,1.4,5.2,2.3,7.7l-46.9,15.6C155.9,240.9,154.6,241.9,153.6,243.2L153.6,243.2z
	 M312.3,287.8c5.1,11.4,7.8,23.7,7.7,36.2c0,41.9-28.7,76-64,76s-64-34.1-64-76c0-12.5,2.6-24.8,7.7-36.2
	c6.4-14,16.5-25.3,28.5-32.2c16.8,11.3,38.7,11.3,55.5,0C295.8,262.5,305.8,273.8,312.3,287.8L312.3,287.8z M256,152
	c22.1,0,40,21.5,40,48s-17.9,48-40,48s-40-21.5-40-48S233.9,152,256,152z"/>
</svg>
